<?xml version="1.0" encoding="UTF-8"?>
<svg width="1024" height="1024" viewBox="0 0 1024 1024" xmlns="http://www.w3.org/2000/svg">
  <defs>
    <linearGradient id="bgGrad" x1="0" y1="0" x2="1" y2="1">
      <stop offset="0%" stop-color="#0f1226"/>
      <stop offset="50%" stop-color="#121a3a"/>
      <stop offset="100%" stop-color="#04101e"/>
    </linearGradient>
    <linearGradient id="holo" x1="0" y1="0" x2="1" y2="1">
      <stop offset="0%" stop-color="#7DF9FF"/>
      <stop offset="25%" stop-color="#00E5FF"/>
      <stop offset="50%" stop-color="#7A5CFF"/>
      <stop offset="75%" stop-color="#FF45C7"/>
      <stop offset="100%" stop-color="#00FFA8"/>
    </linearGradient>
    <filter id="glow" x="-50%" y="-50%" width="200%" height="200%">
      <feGaussianBlur stdDeviation="5" result="blur"/>
      <feColorMatrix type="matrix"
        values="0 0 0 0 0
                0 0 0 0 0.9
                0 0 0 0 1
                0 0 0 1 0" result="blueish"/>
      <feMerge><feMergeNode in="blueish"/><feMergeNode in="SourceGraphic"/></feMerge>
    </filter>
    <filter id="innerShadow" x="-50%" y="-50%" width="200%" height="200%">
      <feOffset dx="0" dy="2"/><feGaussianBlur stdDeviation="8" result="offset-blur"/>
      <feComposite operator="out" in="SourceGraphic" in2="offset-blur" result="inverse"/>
      <feFlood flood-color="#000000" flood-opacity="0.6" result="color"/>
      <feComposite operator="in" in="color" in2="inverse" result="shadow"/>
      <feComposite operator="over" in="shadow" in2="SourceGraphic"/>
    </filter>
    <filter id="gridGlow" x="-50%" y="-50%" width="200%" height="200%">
      <feGaussianBlur stdDeviation="2" result="b"/><feMerge><feMergeNode in="b"/><feMergeNode in="SourceGraphic"/></feMerge>
    </filter>
    <filter id="cellShadow" x="-50%" y="-50%" width="200%" height="200%">
      <feDropShadow dx="0" dy="2" stdDeviation="2.5" flood-color="#00E5FF" flood-opacity="0.45"/>
    </filter>
    <pattern id="scan" width="4" height="4" patternUnits="userSpaceOnUse">
      <rect width="4" height="1" y="0" fill="rgba(255,255,255,0.04)"/>
    </pattern>
    <linearGradient id="tileClosed" x1="0" y1="0" x2="0" y2="1">
      <stop offset="0%" stop-color="#16243d"/>
      <stop offset="100%" stop-color="#0c1528"/>
    </linearGradient>
    <linearGradient id="tileOpen" x1="0" y1="0" x2="0" y2="1">
      <stop offset="0%" stop-color="#0a1426"/>
      <stop offset="100%" stop-color="#0b1a2f"/>
    </linearGradient>
    <linearGradient id="tileBevelLight" x1="0" y1="0" x2="0" y2="1">
      <stop offset="0%" stop-color="#7DF9FF"/>
      <stop offset="100%" stop-color="#00E5FF"/>
    </linearGradient>
    <style>
      .num { font-family: Inter, system-ui, -apple-system, Segoe UI, Roboto, Arial; font-weight: 800; }
      .num1 { fill:#7DF9FF; }
      .num2 { fill:#00FFA8; }
      .num3 { fill:#FF45C7; }
    </style>
  </defs>

  <!-- Card -->
  <rect x="32" y="32" width="960" height="960" rx="180" ry="180" fill="url(#bgGrad)" filter="url(#innerShadow)"/>
  <rect x="32" y="32" width="960" height="960" rx="180" ry="180" fill="none" stroke="url(#holo)" stroke-width="6" opacity="0.9"/>
  <rect x="32" y="32" width="960" height="960" rx="180" ry="180" fill="url(#scan)" opacity="0.5"/>

  <!-- Board frame -->
  <g transform="translate(172,172)" filter="url(#gridGlow)">
    <rect x="-18" y="-18" width="716" height="716" rx="24" ry="24" fill="rgba(255,255,255,0.02)" stroke="url(#holo)" stroke-width="2"/>
  </g>

    <g transform="translate(172,172)">
      <rect x="0" y="0" width="68" height="68" rx="10" ry="10" fill="url(#tileClosed)"/>
      <path d="M2,2 H64 M2,2 V64" stroke="url(#tileBevelLight)" stroke-width="2" opacity="0.65"/>
    </g>
    
    <g transform="translate(240,172)">
      <rect x="0" y="0" width="68" height="68" rx="10" ry="10" fill="url(#tileClosed)"/>
      <path d="M2,2 H64 M2,2 V64" stroke="url(#tileBevelLight)" stroke-width="2" opacity="0.65"/>
    </g>
    
    <g transform="translate(308,172)">
      <rect x="0" y="0" width="68" height="68" rx="10" ry="10" fill="url(#tileClosed)"/>
      <path d="M2,2 H64 M2,2 V64" stroke="url(#tileBevelLight)" stroke-width="2" opacity="0.65"/>
    </g>
    
    <g transform="translate(376,172)">
      <rect x="0" y="0" width="68" height="68" rx="10" ry="10" fill="url(#tileClosed)"/>
      <path d="M2,2 H64 M2,2 V64" stroke="url(#tileBevelLight)" stroke-width="2" opacity="0.65"/>
    </g>
    
    <g transform="translate(444,172)">
      <rect x="0" y="0" width="68" height="68" rx="10" ry="10" fill="url(#tileClosed)"/>
      <path d="M2,2 H64 M2,2 V64" stroke="url(#tileBevelLight)" stroke-width="2" opacity="0.65"/>
    </g>
    
    <g transform="translate(512,172)">
      <rect x="0" y="0" width="68" height="68" rx="10" ry="10" fill="url(#tileClosed)"/>
      <path d="M2,2 H64 M2,2 V64" stroke="url(#tileBevelLight)" stroke-width="2" opacity="0.65"/>
    </g>
    
    <g transform="translate(580,172)">
      <rect x="0" y="0" width="68" height="68" rx="10" ry="10" fill="url(#tileClosed)"/>
      <path d="M2,2 H64 M2,2 V64" stroke="url(#tileBevelLight)" stroke-width="2" opacity="0.65"/>
    </g>
    
    <g transform="translate(648,172)">
      <rect x="0" y="0" width="68" height="68" rx="10" ry="10" fill="url(#tileClosed)"/>
      <path d="M2,2 H64 M2,2 V64" stroke="url(#tileBevelLight)" stroke-width="2" opacity="0.65"/>
    </g>
    
    <g transform="translate(716,172)">
      <rect x="0" y="0" width="68" height="68" rx="10" ry="10" fill="url(#tileClosed)"/>
      <path d="M2,2 H64 M2,2 V64" stroke="url(#tileBevelLight)" stroke-width="2" opacity="0.65"/>
    </g>
    
    <g transform="translate(784,172)">
      <rect x="0" y="0" width="68" height="68" rx="10" ry="10" fill="url(#tileClosed)"/>
      <path d="M2,2 H64 M2,2 V64" stroke="url(#tileBevelLight)" stroke-width="2" opacity="0.65"/>
    </g>
    
    <g transform="translate(172,240)">
      <rect x="0" y="0" width="68" height="68" rx="10" ry="10" fill="url(#tileClosed)"/>
      <path d="M2,2 H64 M2,2 V64" stroke="url(#tileBevelLight)" stroke-width="2" opacity="0.65"/>
    </g>
    
    <g transform="translate(240,240)">
      <rect x="0" y="0" width="68" height="68" rx="10" ry="10" fill="url(#tileClosed)"/>
      <path d="M2,2 H64 M2,2 V64" stroke="url(#tileBevelLight)" stroke-width="2" opacity="0.65"/>
    </g>
    
    <g transform="translate(308,240)">
      <rect x="0" y="0" width="68" height="68" rx="10" ry="10" fill="url(#tileClosed)"/>
      <path d="M2,2 H64 M2,2 V64" stroke="url(#tileBevelLight)" stroke-width="2" opacity="0.65"/>
    </g>
    
    <g transform="translate(376,240)">
      <rect x="0" y="0" width="68" height="68" rx="10" ry="10" fill="url(#tileClosed)"/>
      <path d="M2,2 H64 M2,2 V64" stroke="url(#tileBevelLight)" stroke-width="2" opacity="0.65"/>
    </g>
    
    <g transform="translate(444,240)">
      <rect x="0" y="0" width="68" height="68" rx="10" ry="10" fill="url(#tileClosed)"/>
      <path d="M2,2 H64 M2,2 V64" stroke="url(#tileBevelLight)" stroke-width="2" opacity="0.65"/>
    </g>
    
    <g transform="translate(512,240)">
      <rect x="0" y="0" width="68" height="68" rx="10" ry="10" fill="url(#tileClosed)"/>
      <path d="M2,2 H64 M2,2 V64" stroke="url(#tileBevelLight)" stroke-width="2" opacity="0.65"/>
    </g>
    
    <g transform="translate(580,240)">
      <rect x="0" y="0" width="68" height="68" rx="10" ry="10" fill="url(#tileClosed)"/>
      <path d="M2,2 H64 M2,2 V64" stroke="url(#tileBevelLight)" stroke-width="2" opacity="0.65"/>
    </g>
    
    <g transform="translate(648,240)">
      <rect x="0" y="0" width="68" height="68" rx="10" ry="10" fill="url(#tileClosed)"/>
      <path d="M2,2 H64 M2,2 V64" stroke="url(#tileBevelLight)" stroke-width="2" opacity="0.65"/>
    </g>
    
    <g transform="translate(716,240)">
      <rect x="0" y="0" width="68" height="68" rx="10" ry="10" fill="url(#tileClosed)"/>
      <path d="M2,2 H64 M2,2 V64" stroke="url(#tileBevelLight)" stroke-width="2" opacity="0.65"/>
    </g>
    
    <g transform="translate(784,240)">
      <rect x="0" y="0" width="68" height="68" rx="10" ry="10" fill="url(#tileClosed)"/>
      <path d="M2,2 H64 M2,2 V64" stroke="url(#tileBevelLight)" stroke-width="2" opacity="0.65"/>
    </g>
    
    <g transform="translate(172,308)">
      <rect x="0" y="0" width="68" height="68" rx="10" ry="10" fill="url(#tileClosed)"/>
      <path d="M2,2 H64 M2,2 V64" stroke="url(#tileBevelLight)" stroke-width="2" opacity="0.65"/>
    </g>
    
    <g transform="translate(240,308)">
      <rect x="0" y="0" width="68" height="68" rx="10" ry="10" fill="url(#tileClosed)"/>
      <path d="M2,2 H64 M2,2 V64" stroke="url(#tileBevelLight)" stroke-width="2" opacity="0.65"/>
    </g>
    
    <g transform="translate(308,308)">
      <rect x="0" y="0" width="68" height="68" rx="10" ry="10" fill="url(#tileClosed)"/>
      <path d="M2,2 H64 M2,2 V64" stroke="url(#tileBevelLight)" stroke-width="2" opacity="0.65"/>
    </g>
    
    <g transform="translate(376,308)">
      <rect x="0" y="0" width="68" height="68" rx="10" ry="10" fill="url(#tileClosed)"/>
      <path d="M2,2 H64 M2,2 V64" stroke="url(#tileBevelLight)" stroke-width="2" opacity="0.65"/>
    </g>
    
    <g transform="translate(444,308)">
      <rect x="0" y="0" width="68" height="68" rx="10" ry="10" fill="url(#tileClosed)"/>
      <path d="M2,2 H64 M2,2 V64" stroke="url(#tileBevelLight)" stroke-width="2" opacity="0.65"/>
    </g>
    
    <g transform="translate(512,308)">
      <rect x="0" y="0" width="68" height="68" rx="10" ry="10" fill="url(#tileClosed)"/>
      <path d="M2,2 H64 M2,2 V64" stroke="url(#tileBevelLight)" stroke-width="2" opacity="0.65"/>
    </g>
    
    <g transform="translate(580,308)">
      <rect x="0" y="0" width="68" height="68" rx="10" ry="10" fill="url(#tileClosed)"/>
      <path d="M2,2 H64 M2,2 V64" stroke="url(#tileBevelLight)" stroke-width="2" opacity="0.65"/>
    </g>
    
    <g transform="translate(648,308)">
      <rect x="0" y="0" width="68" height="68" rx="10" ry="10" fill="url(#tileClosed)"/>
      <path d="M2,2 H64 M2,2 V64" stroke="url(#tileBevelLight)" stroke-width="2" opacity="0.65"/>
    </g>
    
    <g transform="translate(716,308)">
      <rect x="0" y="0" width="68" height="68" rx="10" ry="10" fill="url(#tileClosed)"/>
      <path d="M2,2 H64 M2,2 V64" stroke="url(#tileBevelLight)" stroke-width="2" opacity="0.65"/>
    </g>
    
    <g transform="translate(784,308)">
      <rect x="0" y="0" width="68" height="68" rx="10" ry="10" fill="url(#tileClosed)"/>
      <path d="M2,2 H64 M2,2 V64" stroke="url(#tileBevelLight)" stroke-width="2" opacity="0.65"/>
    </g>
    
    <g transform="translate(172,376)">
      <rect x="0" y="0" width="68" height="68" rx="10" ry="10" fill="url(#tileClosed)"/>
      <path d="M2,2 H64 M2,2 V64" stroke="url(#tileBevelLight)" stroke-width="2" opacity="0.65"/>
    </g>
    
    <g transform="translate(240,376)">
      <rect x="0" y="0" width="68" height="68" rx="10" ry="10" fill="url(#tileClosed)"/>
      <path d="M2,2 H64 M2,2 V64" stroke="url(#tileBevelLight)" stroke-width="2" opacity="0.65"/>
    </g>
    
    <g transform="translate(308,376)">
      <rect x="0" y="0" width="68" height="68" rx="10" ry="10" fill="url(#tileClosed)"/>
      <path d="M2,2 H64 M2,2 V64" stroke="url(#tileBevelLight)" stroke-width="2" opacity="0.65"/>
    </g>
    
    <g transform="translate(376,376)">
      <rect x="0" y="0" width="68" height="68" rx="10" ry="10" fill="url(#tileClosed)"/>
      <path d="M2,2 H64 M2,2 V64" stroke="url(#tileBevelLight)" stroke-width="2" opacity="0.65"/>
    </g>
    
    <g transform="translate(444,376)">
      <rect x="0" y="0" width="68" height="68" rx="10" ry="10" fill="url(#tileClosed)"/>
      <path d="M2,2 H64 M2,2 V64" stroke="url(#tileBevelLight)" stroke-width="2" opacity="0.65"/>
    </g>
    
    <g transform="translate(512,376)">
      <rect x="0" y="0" width="68" height="68" rx="10" ry="10" fill="url(#tileClosed)"/>
      <path d="M2,2 H64 M2,2 V64" stroke="url(#tileBevelLight)" stroke-width="2" opacity="0.65"/>
    </g>
    
    <g transform="translate(580,376)">
      <rect x="0" y="0" width="68" height="68" rx="10" ry="10" fill="url(#tileClosed)"/>
      <path d="M2,2 H64 M2,2 V64" stroke="url(#tileBevelLight)" stroke-width="2" opacity="0.65"/>
    </g>
    
    <g transform="translate(648,376)">
      <rect x="0" y="0" width="68" height="68" rx="10" ry="10" fill="url(#tileClosed)"/>
      <path d="M2,2 H64 M2,2 V64" stroke="url(#tileBevelLight)" stroke-width="2" opacity="0.65"/>
    </g>
    
    <g transform="translate(716,376)">
      <rect x="0" y="0" width="68" height="68" rx="10" ry="10" fill="url(#tileClosed)"/>
      <path d="M2,2 H64 M2,2 V64" stroke="url(#tileBevelLight)" stroke-width="2" opacity="0.65"/>
    </g>
    
    <g transform="translate(784,376)">
      <rect x="0" y="0" width="68" height="68" rx="10" ry="10" fill="url(#tileClosed)"/>
      <path d="M2,2 H64 M2,2 V64" stroke="url(#tileBevelLight)" stroke-width="2" opacity="0.65"/>
    </g>
    
    <g transform="translate(172,444)">
      <rect x="0" y="0" width="68" height="68" rx="10" ry="10" fill="url(#tileClosed)"/>
      <path d="M2,2 H64 M2,2 V64" stroke="url(#tileBevelLight)" stroke-width="2" opacity="0.65"/>
    </g>
    
    <g transform="translate(240,444)">
      <rect x="0" y="0" width="68" height="68" rx="10" ry="10" fill="url(#tileClosed)"/>
      <path d="M2,2 H64 M2,2 V64" stroke="url(#tileBevelLight)" stroke-width="2" opacity="0.65"/>
    </g>
    
    <g transform="translate(308,444)">
      <rect x="0" y="0" width="68" height="68" rx="10" ry="10" fill="url(#tileClosed)"/>
      <path d="M2,2 H64 M2,2 V64" stroke="url(#tileBevelLight)" stroke-width="2" opacity="0.65"/>
    </g>
    
    <g transform="translate(376,444)">
      <rect x="0" y="0" width="68" height="68" rx="10" ry="10" fill="url(#tileClosed)"/>
      <path d="M2,2 H64 M2,2 V64" stroke="url(#tileBevelLight)" stroke-width="2" opacity="0.65"/>
    </g>
    
    <g transform="translate(444,444)">
      <rect x="0" y="0" width="68" height="68" rx="10" ry="10" fill="url(#tileClosed)"/>
      <path d="M2,2 H64 M2,2 V64" stroke="url(#tileBevelLight)" stroke-width="2" opacity="0.65"/>
    </g>
    
    <g transform="translate(512,444)">
      <rect x="0" y="0" width="68" height="68" rx="10" ry="10" fill="url(#tileClosed)"/>
      <path d="M2,2 H64 M2,2 V64" stroke="url(#tileBevelLight)" stroke-width="2" opacity="0.65"/>
    </g>
    
    <g transform="translate(580,444)">
      <rect x="0" y="0" width="68" height="68" rx="10" ry="10" fill="url(#tileClosed)"/>
      <path d="M2,2 H64 M2,2 V64" stroke="url(#tileBevelLight)" stroke-width="2" opacity="0.65"/>
    </g>
    
    <g transform="translate(648,444)">
      <rect x="0" y="0" width="68" height="68" rx="10" ry="10" fill="url(#tileClosed)"/>
      <path d="M2,2 H64 M2,2 V64" stroke="url(#tileBevelLight)" stroke-width="2" opacity="0.65"/>
    </g>
    
    <g transform="translate(716,444)">
      <rect x="0" y="0" width="68" height="68" rx="10" ry="10" fill="url(#tileClosed)"/>
      <path d="M2,2 H64 M2,2 V64" stroke="url(#tileBevelLight)" stroke-width="2" opacity="0.65"/>
    </g>
    
    <g transform="translate(784,444)">
      <rect x="0" y="0" width="68" height="68" rx="10" ry="10" fill="url(#tileClosed)"/>
      <path d="M2,2 H64 M2,2 V64" stroke="url(#tileBevelLight)" stroke-width="2" opacity="0.65"/>
    </g>
    
    <g transform="translate(172,512)">
      <rect x="0" y="0" width="68" height="68" rx="10" ry="10" fill="url(#tileClosed)"/>
      <path d="M2,2 H64 M2,2 V64" stroke="url(#tileBevelLight)" stroke-width="2" opacity="0.65"/>
    </g>
    
    <g transform="translate(240,512)">
      <rect x="0" y="0" width="68" height="68" rx="10" ry="10" fill="url(#tileClosed)"/>
      <path d="M2,2 H64 M2,2 V64" stroke="url(#tileBevelLight)" stroke-width="2" opacity="0.65"/>
    </g>
    
    <g transform="translate(308,512)">
      <rect x="0" y="0" width="68" height="68" rx="10" ry="10" fill="url(#tileClosed)"/>
      <path d="M2,2 H64 M2,2 V64" stroke="url(#tileBevelLight)" stroke-width="2" opacity="0.65"/>
    </g>
    
    <g transform="translate(376,512)">
      <rect x="0" y="0" width="68" height="68" rx="10" ry="10" fill="url(#tileClosed)"/>
      <path d="M2,2 H64 M2,2 V64" stroke="url(#tileBevelLight)" stroke-width="2" opacity="0.65"/>
    </g>
    
    <g transform="translate(444,512)">
      <rect x="0" y="0" width="68" height="68" rx="10" ry="10" fill="url(#tileClosed)"/>
      <path d="M2,2 H64 M2,2 V64" stroke="url(#tileBevelLight)" stroke-width="2" opacity="0.65"/>
    </g>
    
    <g transform="translate(512,512)">
      <rect x="0" y="0" width="68" height="68" rx="10" ry="10" fill="url(#tileClosed)"/>
      <path d="M2,2 H64 M2,2 V64" stroke="url(#tileBevelLight)" stroke-width="2" opacity="0.65"/>
    </g>
    
    <g transform="translate(580,512)">
      <rect x="0" y="0" width="68" height="68" rx="10" ry="10" fill="url(#tileClosed)"/>
      <path d="M2,2 H64 M2,2 V64" stroke="url(#tileBevelLight)" stroke-width="2" opacity="0.65"/>
    </g>
    
    <g transform="translate(648,512)">
      <rect x="0" y="0" width="68" height="68" rx="10" ry="10" fill="url(#tileClosed)"/>
      <path d="M2,2 H64 M2,2 V64" stroke="url(#tileBevelLight)" stroke-width="2" opacity="0.65"/>
    </g>
    
    <g transform="translate(716,512)">
      <rect x="0" y="0" width="68" height="68" rx="10" ry="10" fill="url(#tileClosed)"/>
      <path d="M2,2 H64 M2,2 V64" stroke="url(#tileBevelLight)" stroke-width="2" opacity="0.65"/>
    </g>
    
    <g transform="translate(784,512)">
      <rect x="0" y="0" width="68" height="68" rx="10" ry="10" fill="url(#tileClosed)"/>
      <path d="M2,2 H64 M2,2 V64" stroke="url(#tileBevelLight)" stroke-width="2" opacity="0.65"/>
    </g>
    
    <g transform="translate(172,580)">
      <rect x="0" y="0" width="68" height="68" rx="10" ry="10" fill="url(#tileClosed)"/>
      <path d="M2,2 H64 M2,2 V64" stroke="url(#tileBevelLight)" stroke-width="2" opacity="0.65"/>
    </g>
    
    <g transform="translate(240,580)">
      <rect x="0" y="0" width="68" height="68" rx="10" ry="10" fill="url(#tileClosed)"/>
      <path d="M2,2 H64 M2,2 V64" stroke="url(#tileBevelLight)" stroke-width="2" opacity="0.65"/>
    </g>
    
    <g transform="translate(308,580)">
      <rect x="0" y="0" width="68" height="68" rx="10" ry="10" fill="url(#tileClosed)"/>
      <path d="M2,2 H64 M2,2 V64" stroke="url(#tileBevelLight)" stroke-width="2" opacity="0.65"/>
    </g>
    
    <g transform="translate(376,580)">
      <rect x="0" y="0" width="68" height="68" rx="10" ry="10" fill="url(#tileClosed)"/>
      <path d="M2,2 H64 M2,2 V64" stroke="url(#tileBevelLight)" stroke-width="2" opacity="0.65"/>
    </g>
    
    <g transform="translate(444,580)">
      <rect x="0" y="0" width="68" height="68" rx="10" ry="10" fill="url(#tileClosed)"/>
      <path d="M2,2 H64 M2,2 V64" stroke="url(#tileBevelLight)" stroke-width="2" opacity="0.65"/>
    </g>
    
    <g transform="translate(512,580)">
      <rect x="0" y="0" width="68" height="68" rx="10" ry="10" fill="url(#tileClosed)"/>
      <path d="M2,2 H64 M2,2 V64" stroke="url(#tileBevelLight)" stroke-width="2" opacity="0.65"/>
    </g>
    
    <g transform="translate(580,580)">
      <rect x="0" y="0" width="68" height="68" rx="10" ry="10" fill="url(#tileClosed)"/>
      <path d="M2,2 H64 M2,2 V64" stroke="url(#tileBevelLight)" stroke-width="2" opacity="0.65"/>
    </g>
    
    <g transform="translate(648,580)">
      <rect x="0" y="0" width="68" height="68" rx="10" ry="10" fill="url(#tileClosed)"/>
      <path d="M2,2 H64 M2,2 V64" stroke="url(#tileBevelLight)" stroke-width="2" opacity="0.65"/>
    </g>
    
    <g transform="translate(716,580)">
      <rect x="0" y="0" width="68" height="68" rx="10" ry="10" fill="url(#tileClosed)"/>
      <path d="M2,2 H64 M2,2 V64" stroke="url(#tileBevelLight)" stroke-width="2" opacity="0.65"/>
    </g>
    
    <g transform="translate(784,580)">
      <rect x="0" y="0" width="68" height="68" rx="10" ry="10" fill="url(#tileClosed)"/>
      <path d="M2,2 H64 M2,2 V64" stroke="url(#tileBevelLight)" stroke-width="2" opacity="0.65"/>
    </g>
    
    <g transform="translate(172,648)">
      <rect x="0" y="0" width="68" height="68" rx="10" ry="10" fill="url(#tileClosed)"/>
      <path d="M2,2 H64 M2,2 V64" stroke="url(#tileBevelLight)" stroke-width="2" opacity="0.65"/>
    </g>
    
    <g transform="translate(240,648)">
      <rect x="0" y="0" width="68" height="68" rx="10" ry="10" fill="url(#tileClosed)"/>
      <path d="M2,2 H64 M2,2 V64" stroke="url(#tileBevelLight)" stroke-width="2" opacity="0.65"/>
    </g>
    
    <g transform="translate(308,648)">
      <rect x="0" y="0" width="68" height="68" rx="10" ry="10" fill="url(#tileClosed)"/>
      <path d="M2,2 H64 M2,2 V64" stroke="url(#tileBevelLight)" stroke-width="2" opacity="0.65"/>
    </g>
    
    <g transform="translate(376,648)">
      <rect x="0" y="0" width="68" height="68" rx="10" ry="10" fill="url(#tileClosed)"/>
      <path d="M2,2 H64 M2,2 V64" stroke="url(#tileBevelLight)" stroke-width="2" opacity="0.65"/>
    </g>
    
    <g transform="translate(444,648)">
      <rect x="0" y="0" width="68" height="68" rx="10" ry="10" fill="url(#tileClosed)"/>
      <path d="M2,2 H64 M2,2 V64" stroke="url(#tileBevelLight)" stroke-width="2" opacity="0.65"/>
    </g>
    
    <g transform="translate(512,648)">
      <rect x="0" y="0" width="68" height="68" rx="10" ry="10" fill="url(#tileClosed)"/>
      <path d="M2,2 H64 M2,2 V64" stroke="url(#tileBevelLight)" stroke-width="2" opacity="0.65"/>
    </g>
    
    <g transform="translate(580,648)">
      <rect x="0" y="0" width="68" height="68" rx="10" ry="10" fill="url(#tileClosed)"/>
      <path d="M2,2 H64 M2,2 V64" stroke="url(#tileBevelLight)" stroke-width="2" opacity="0.65"/>
    </g>
    
    <g transform="translate(648,648)">
      <rect x="0" y="0" width="68" height="68" rx="10" ry="10" fill="url(#tileClosed)"/>
      <path d="M2,2 H64 M2,2 V64" stroke="url(#tileBevelLight)" stroke-width="2" opacity="0.65"/>
    </g>
    
    <g transform="translate(716,648)">
      <rect x="0" y="0" width="68" height="68" rx="10" ry="10" fill="url(#tileClosed)"/>
      <path d="M2,2 H64 M2,2 V64" stroke="url(#tileBevelLight)" stroke-width="2" opacity="0.65"/>
    </g>
    
    <g transform="translate(784,648)">
      <rect x="0" y="0" width="68" height="68" rx="10" ry="10" fill="url(#tileClosed)"/>
      <path d="M2,2 H64 M2,2 V64" stroke="url(#tileBevelLight)" stroke-width="2" opacity="0.65"/>
    </g>
    
    <g transform="translate(172,716)">
      <rect x="0" y="0" width="68" height="68" rx="10" ry="10" fill="url(#tileClosed)"/>
      <path d="M2,2 H64 M2,2 V64" stroke="url(#tileBevelLight)" stroke-width="2" opacity="0.65"/>
    </g>
    
    <g transform="translate(240,716)">
      <rect x="0" y="0" width="68" height="68" rx="10" ry="10" fill="url(#tileClosed)"/>
      <path d="M2,2 H64 M2,2 V64" stroke="url(#tileBevelLight)" stroke-width="2" opacity="0.65"/>
    </g>
    
    <g transform="translate(308,716)">
      <rect x="0" y="0" width="68" height="68" rx="10" ry="10" fill="url(#tileClosed)"/>
      <path d="M2,2 H64 M2,2 V64" stroke="url(#tileBevelLight)" stroke-width="2" opacity="0.65"/>
    </g>
    
    <g transform="translate(376,716)">
      <rect x="0" y="0" width="68" height="68" rx="10" ry="10" fill="url(#tileClosed)"/>
      <path d="M2,2 H64 M2,2 V64" stroke="url(#tileBevelLight)" stroke-width="2" opacity="0.65"/>
    </g>
    
    <g transform="translate(444,716)">
      <rect x="0" y="0" width="68" height="68" rx="10" ry="10" fill="url(#tileClosed)"/>
      <path d="M2,2 H64 M2,2 V64" stroke="url(#tileBevelLight)" stroke-width="2" opacity="0.65"/>
    </g>
    
    <g transform="translate(512,716)">
      <rect x="0" y="0" width="68" height="68" rx="10" ry="10" fill="url(#tileClosed)"/>
      <path d="M2,2 H64 M2,2 V64" stroke="url(#tileBevelLight)" stroke-width="2" opacity="0.65"/>
    </g>
    
    <g transform="translate(580,716)">
      <rect x="0" y="0" width="68" height="68" rx="10" ry="10" fill="url(#tileClosed)"/>
      <path d="M2,2 H64 M2,2 V64" stroke="url(#tileBevelLight)" stroke-width="2" opacity="0.65"/>
    </g>
    
    <g transform="translate(648,716)">
      <rect x="0" y="0" width="68" height="68" rx="10" ry="10" fill="url(#tileClosed)"/>
      <path d="M2,2 H64 M2,2 V64" stroke="url(#tileBevelLight)" stroke-width="2" opacity="0.65"/>
    </g>
    
    <g transform="translate(716,716)">
      <rect x="0" y="0" width="68" height="68" rx="10" ry="10" fill="url(#tileClosed)"/>
      <path d="M2,2 H64 M2,2 V64" stroke="url(#tileBevelLight)" stroke-width="2" opacity="0.65"/>
    </g>
    
    <g transform="translate(784,716)">
      <rect x="0" y="0" width="68" height="68" rx="10" ry="10" fill="url(#tileClosed)"/>
      <path d="M2,2 H64 M2,2 V64" stroke="url(#tileBevelLight)" stroke-width="2" opacity="0.65"/>
    </g>
    
    <g transform="translate(172,784)">
      <rect x="0" y="0" width="68" height="68" rx="10" ry="10" fill="url(#tileClosed)"/>
      <path d="M2,2 H64 M2,2 V64" stroke="url(#tileBevelLight)" stroke-width="2" opacity="0.65"/>
    </g>
    
    <g transform="translate(240,784)">
      <rect x="0" y="0" width="68" height="68" rx="10" ry="10" fill="url(#tileClosed)"/>
      <path d="M2,2 H64 M2,2 V64" stroke="url(#tileBevelLight)" stroke-width="2" opacity="0.65"/>
    </g>
    
    <g transform="translate(308,784)">
      <rect x="0" y="0" width="68" height="68" rx="10" ry="10" fill="url(#tileClosed)"/>
      <path d="M2,2 H64 M2,2 V64" stroke="url(#tileBevelLight)" stroke-width="2" opacity="0.65"/>
    </g>
    
    <g transform="translate(376,784)">
      <rect x="0" y="0" width="68" height="68" rx="10" ry="10" fill="url(#tileClosed)"/>
      <path d="M2,2 H64 M2,2 V64" stroke="url(#tileBevelLight)" stroke-width="2" opacity="0.65"/>
    </g>
    
    <g transform="translate(444,784)">
      <rect x="0" y="0" width="68" height="68" rx="10" ry="10" fill="url(#tileClosed)"/>
      <path d="M2,2 H64 M2,2 V64" stroke="url(#tileBevelLight)" stroke-width="2" opacity="0.65"/>
    </g>
    
    <g transform="translate(512,784)">
      <rect x="0" y="0" width="68" height="68" rx="10" ry="10" fill="url(#tileClosed)"/>
      <path d="M2,2 H64 M2,2 V64" stroke="url(#tileBevelLight)" stroke-width="2" opacity="0.65"/>
    </g>
    
    <g transform="translate(580,784)">
      <rect x="0" y="0" width="68" height="68" rx="10" ry="10" fill="url(#tileClosed)"/>
      <path d="M2,2 H64 M2,2 V64" stroke="url(#tileBevelLight)" stroke-width="2" opacity="0.65"/>
    </g>
    
    <g transform="translate(648,784)">
      <rect x="0" y="0" width="68" height="68" rx="10" ry="10" fill="url(#tileClosed)"/>
      <path d="M2,2 H64 M2,2 V64" stroke="url(#tileBevelLight)" stroke-width="2" opacity="0.65"/>
    </g>
    
    <g transform="translate(716,784)">
      <rect x="0" y="0" width="68" height="68" rx="10" ry="10" fill="url(#tileClosed)"/>
      <path d="M2,2 H64 M2,2 V64" stroke="url(#tileBevelLight)" stroke-width="2" opacity="0.65"/>
    </g>
    
    <g transform="translate(784,784)">
      <rect x="0" y="0" width="68" height="68" rx="10" ry="10" fill="url(#tileClosed)"/>
      <path d="M2,2 H64 M2,2 V64" stroke="url(#tileBevelLight)" stroke-width="2" opacity="0.65"/>
    </g>
    
    
    <g transform="translate(240,240)">
      <rect x="0" y="0" width="68" height="68" rx="10" ry="10" fill="url(#tileOpen)" stroke="url(#holo)" stroke-width="1" opacity="0.95"/>
    </g>
    
    <text x="274.0" y="276.0" class="num num1" font-size="34" text-anchor="middle" dominant-baseline="central" filter="url(#glow)">1</text>
    
    
    <g transform="translate(308,240)">
      <rect x="0" y="0" width="68" height="68" rx="10" ry="10" fill="url(#tileOpen)" stroke="url(#holo)" stroke-width="1" opacity="0.95"/>
    </g>
    
    <text x="342.0" y="276.0" class="num num1" font-size="34" text-anchor="middle" dominant-baseline="central" filter="url(#glow)">1</text>
    
    
    <g transform="translate(376,240)">
      <rect x="0" y="0" width="68" height="68" rx="10" ry="10" fill="url(#tileOpen)" stroke="url(#holo)" stroke-width="1" opacity="0.95"/>
    </g>
    
    <text x="410.0" y="276.0" class="num num1" font-size="34" text-anchor="middle" dominant-baseline="central" filter="url(#glow)">1</text>
    
    
    <g transform="translate(512,240)">
      <rect x="0" y="0" width="68" height="68" rx="10" ry="10" fill="url(#tileOpen)" stroke="url(#holo)" stroke-width="1" opacity="0.95"/>
    </g>
    
    <text x="546.0" y="276.0" class="num num1" font-size="34" text-anchor="middle" dominant-baseline="central" filter="url(#glow)">1</text>
    
    
    <g transform="translate(172,308)">
      <rect x="0" y="0" width="68" height="68" rx="10" ry="10" fill="url(#tileOpen)" stroke="url(#holo)" stroke-width="1" opacity="0.95"/>
    </g>
    
    <text x="206.0" y="344.0" class="num num2" font-size="34" text-anchor="middle" dominant-baseline="central" filter="url(#glow)">2</text>
    
    
    <g transform="translate(240,308)">
      <rect x="0" y="0" width="68" height="68" rx="10" ry="10" fill="url(#tileOpen)" stroke="url(#holo)" stroke-width="1" opacity="0.95"/>
    </g>
    
    <text x="274.0" y="344.0" class="num num2" font-size="34" text-anchor="middle" dominant-baseline="central" filter="url(#glow)">2</text>
    
    
    <g transform="translate(308,308)">
      <rect x="0" y="0" width="68" height="68" rx="10" ry="10" fill="url(#tileOpen)" stroke="url(#holo)" stroke-width="1" opacity="0.95"/>
    </g>
    
    <text x="342.0" y="344.0" class="num num1" font-size="34" text-anchor="middle" dominant-baseline="central" filter="url(#glow)">1</text>
    
    
    <g transform="translate(376,308)">
      <rect x="0" y="0" width="68" height="68" rx="10" ry="10" fill="url(#tileOpen)" stroke="url(#holo)" stroke-width="1" opacity="0.95"/>
    </g>
    
    <text x="410.0" y="344.0" class="num num1" font-size="34" text-anchor="middle" dominant-baseline="central" filter="url(#glow)">1</text>
    
    
    <g transform="translate(444,308)">
      <rect x="0" y="0" width="68" height="68" rx="10" ry="10" fill="url(#tileOpen)" stroke="url(#holo)" stroke-width="1" opacity="0.95"/>
    </g>
    
    <text x="478.0" y="344.0" class="num num1" font-size="34" text-anchor="middle" dominant-baseline="central" filter="url(#glow)">1</text>
    
    
    <g transform="translate(580,308)">
      <rect x="0" y="0" width="68" height="68" rx="10" ry="10" fill="url(#tileOpen)" stroke="url(#holo)" stroke-width="1" opacity="0.95"/>
    </g>
    
    <text x="614.0" y="344.0" class="num num2" font-size="34" text-anchor="middle" dominant-baseline="central" filter="url(#glow)">2</text>
    
    
    <g transform="translate(648,308)">
      <rect x="0" y="0" width="68" height="68" rx="10" ry="10" fill="url(#tileOpen)" stroke="url(#holo)" stroke-width="1" opacity="0.95"/>
    </g>
    
    <text x="682.0" y="344.0" class="num num2" font-size="34" text-anchor="middle" dominant-baseline="central" filter="url(#glow)">2</text>
    
    
    <g transform="translate(172,376)">
      <rect x="0" y="0" width="68" height="68" rx="10" ry="10" fill="url(#tileOpen)" stroke="url(#holo)" stroke-width="1" opacity="0.95"/>
    </g>
    
    <text x="206.0" y="412.0" class="num num2" font-size="34" text-anchor="middle" dominant-baseline="central" filter="url(#glow)">2</text>
    
    
    <g transform="translate(240,376)">
      <rect x="0" y="0" width="68" height="68" rx="10" ry="10" fill="url(#tileOpen)" stroke="url(#holo)" stroke-width="1" opacity="0.95"/>
    </g>
    
    <text x="274.0" y="412.0" class="num num3" font-size="34" text-anchor="middle" dominant-baseline="central" filter="url(#glow)">3</text>
    
    
    <g transform="translate(376,376)">
      <rect x="0" y="0" width="68" height="68" rx="10" ry="10" fill="url(#tileOpen)" stroke="url(#holo)" stroke-width="1" opacity="0.95"/>
    </g>
    
    <text x="410.0" y="412.0" class="num num1" font-size="34" text-anchor="middle" dominant-baseline="central" filter="url(#glow)">1</text>
    
    
    <g transform="translate(512,376)">
      <rect x="0" y="0" width="68" height="68" rx="10" ry="10" fill="url(#tileOpen)" stroke="url(#holo)" stroke-width="1" opacity="0.95"/>
    </g>
    
    <text x="546.0" y="412.0" class="num num1" font-size="34" text-anchor="middle" dominant-baseline="central" filter="url(#glow)">1</text>
    
    
    <g transform="translate(580,376)">
      <rect x="0" y="0" width="68" height="68" rx="10" ry="10" fill="url(#tileOpen)" stroke="url(#holo)" stroke-width="1" opacity="0.95"/>
    </g>
    
    <text x="614.0" y="412.0" class="num num1" font-size="34" text-anchor="middle" dominant-baseline="central" filter="url(#glow)">1</text>
    
    
    <g transform="translate(648,376)">
      <rect x="0" y="0" width="68" height="68" rx="10" ry="10" fill="url(#tileOpen)" stroke="url(#holo)" stroke-width="1" opacity="0.95"/>
    </g>
    
    <text x="682.0" y="412.0" class="num num1" font-size="34" text-anchor="middle" dominant-baseline="central" filter="url(#glow)">1</text>
    
    
    <g transform="translate(240,444)">
      <rect x="0" y="0" width="68" height="68" rx="10" ry="10" fill="url(#tileOpen)" stroke="url(#holo)" stroke-width="1" opacity="0.95"/>
    </g>
    
    <text x="274.0" y="480.0" class="num num2" font-size="34" text-anchor="middle" dominant-baseline="central" filter="url(#glow)">2</text>
    
    
    <g transform="translate(308,444)">
      <rect x="0" y="0" width="68" height="68" rx="10" ry="10" fill="url(#tileOpen)" stroke="url(#holo)" stroke-width="1" opacity="0.95"/>
    </g>
    
    <text x="342.0" y="480.0" class="num num1" font-size="34" text-anchor="middle" dominant-baseline="central" filter="url(#glow)">1</text>
    
    
    <g transform="translate(376,444)">
      <rect x="0" y="0" width="68" height="68" rx="10" ry="10" fill="url(#tileOpen)" stroke="url(#holo)" stroke-width="1" opacity="0.95"/>
    </g>
    
    <text x="410.0" y="480.0" class="num num1" font-size="34" text-anchor="middle" dominant-baseline="central" filter="url(#glow)">1</text>
    
    
    <g transform="translate(444,444)">
      <rect x="0" y="0" width="68" height="68" rx="10" ry="10" fill="url(#tileOpen)" stroke="url(#holo)" stroke-width="1" opacity="0.95"/>
    </g>
    
    <text x="478.0" y="480.0" class="num num1" font-size="34" text-anchor="middle" dominant-baseline="central" filter="url(#glow)">1</text>
    
    
    <g transform="translate(512,444)">
      <rect x="0" y="0" width="68" height="68" rx="10" ry="10" fill="url(#tileOpen)" stroke="url(#holo)" stroke-width="1" opacity="0.95"/>
    </g>
    
    <text x="546.0" y="480.0" class="num num1" font-size="34" text-anchor="middle" dominant-baseline="central" filter="url(#glow)">1</text>
    
    
    <g transform="translate(648,444)">
      <rect x="0" y="0" width="68" height="68" rx="10" ry="10" fill="url(#tileOpen)" stroke="url(#holo)" stroke-width="1" opacity="0.95"/>
    </g>
    
    <text x="682.0" y="480.0" class="num num1" font-size="34" text-anchor="middle" dominant-baseline="central" filter="url(#glow)">1</text>
    
    
    <g transform="translate(716,444)">
      <rect x="0" y="0" width="68" height="68" rx="10" ry="10" fill="url(#tileOpen)" stroke="url(#holo)" stroke-width="1" opacity="0.95"/>
    </g>
    
    <text x="750.0" y="480.0" class="num num3" font-size="34" text-anchor="middle" dominant-baseline="central" filter="url(#glow)">3</text>
    
    
    <g transform="translate(172,512)">
      <rect x="0" y="0" width="68" height="68" rx="10" ry="10" fill="url(#tileOpen)" stroke="url(#holo)" stroke-width="1" opacity="0.95"/>
    </g>
    
    <text x="206.0" y="548.0" class="num num1" font-size="34" text-anchor="middle" dominant-baseline="central" filter="url(#glow)">1</text>
    
    
    <g transform="translate(240,512)">
      <rect x="0" y="0" width="68" height="68" rx="10" ry="10" fill="url(#tileOpen)" stroke="url(#holo)" stroke-width="1" opacity="0.95"/>
    </g>
    
    <text x="274.0" y="548.0" class="num num1" font-size="34" text-anchor="middle" dominant-baseline="central" filter="url(#glow)">1</text>
    
    
    <g transform="translate(376,512)">
      <rect x="0" y="0" width="68" height="68" rx="10" ry="10" fill="url(#tileOpen)" stroke="url(#holo)" stroke-width="1" opacity="0.95"/>
    </g>
    
    <text x="410.0" y="548.0" class="num num1" font-size="34" text-anchor="middle" dominant-baseline="central" filter="url(#glow)">1</text>
    
    
    <g transform="translate(580,512)">
      <rect x="0" y="0" width="68" height="68" rx="10" ry="10" fill="url(#tileOpen)" stroke="url(#holo)" stroke-width="1" opacity="0.95"/>
    </g>
    
    <text x="614.0" y="548.0" class="num num2" font-size="34" text-anchor="middle" dominant-baseline="central" filter="url(#glow)">2</text>
    
    
    <g transform="translate(648,512)">
      <rect x="0" y="0" width="68" height="68" rx="10" ry="10" fill="url(#tileOpen)" stroke="url(#holo)" stroke-width="1" opacity="0.95"/>
    </g>
    
    <text x="682.0" y="548.0" class="num num1" font-size="34" text-anchor="middle" dominant-baseline="central" filter="url(#glow)">1</text>
    
    
    <g transform="translate(172,580)">
      <rect x="0" y="0" width="68" height="68" rx="10" ry="10" fill="url(#tileOpen)" stroke="url(#holo)" stroke-width="1" opacity="0.95"/>
    </g>
    
    <text x="206.0" y="616.0" class="num num1" font-size="34" text-anchor="middle" dominant-baseline="central" filter="url(#glow)">1</text>
    
    
    <g transform="translate(308,580)">
      <rect x="0" y="0" width="68" height="68" rx="10" ry="10" fill="url(#tileOpen)" stroke="url(#holo)" stroke-width="1" opacity="0.95"/>
    </g>
    
    <text x="342.0" y="616.0" class="num num1" font-size="34" text-anchor="middle" dominant-baseline="central" filter="url(#glow)">1</text>
    
    
    <g transform="translate(648,580)">
      <rect x="0" y="0" width="68" height="68" rx="10" ry="10" fill="url(#tileOpen)" stroke="url(#holo)" stroke-width="1" opacity="0.95"/>
    </g>
    
    <text x="682.0" y="616.0" class="num num2" font-size="34" text-anchor="middle" dominant-baseline="central" filter="url(#glow)">2</text>
    
    
    <g transform="translate(716,580)">
      <rect x="0" y="0" width="68" height="68" rx="10" ry="10" fill="url(#tileOpen)" stroke="url(#holo)" stroke-width="1" opacity="0.95"/>
    </g>
    
    <text x="750.0" y="616.0" class="num num1" font-size="34" text-anchor="middle" dominant-baseline="central" filter="url(#glow)">1</text>
    
    
    <g transform="translate(172,648)">
      <rect x="0" y="0" width="68" height="68" rx="10" ry="10" fill="url(#tileOpen)" stroke="url(#holo)" stroke-width="1" opacity="0.95"/>
    </g>
    
    <text x="206.0" y="684.0" class="num num1" font-size="34" text-anchor="middle" dominant-baseline="central" filter="url(#glow)">1</text>
    
    
    <g transform="translate(308,648)">
      <rect x="0" y="0" width="68" height="68" rx="10" ry="10" fill="url(#tileOpen)" stroke="url(#holo)" stroke-width="1" opacity="0.95"/>
    </g>
    
    <text x="342.0" y="684.0" class="num num1" font-size="34" text-anchor="middle" dominant-baseline="central" filter="url(#glow)">1</text>
    
    
    <g transform="translate(376,648)">
      <rect x="0" y="0" width="68" height="68" rx="10" ry="10" fill="url(#tileOpen)" stroke="url(#holo)" stroke-width="1" opacity="0.95"/>
    </g>
    
    <text x="410.0" y="684.0" class="num num1" font-size="34" text-anchor="middle" dominant-baseline="central" filter="url(#glow)">1</text>
    
    
    <g transform="translate(444,648)">
      <rect x="0" y="0" width="68" height="68" rx="10" ry="10" fill="url(#tileOpen)" stroke="url(#holo)" stroke-width="1" opacity="0.95"/>
    </g>
    
    <text x="478.0" y="684.0" class="num num1" font-size="34" text-anchor="middle" dominant-baseline="central" filter="url(#glow)">1</text>
    
    
    <g transform="translate(512,648)">
      <rect x="0" y="0" width="68" height="68" rx="10" ry="10" fill="url(#tileOpen)" stroke="url(#holo)" stroke-width="1" opacity="0.95"/>
    </g>
    
    <text x="546.0" y="684.0" class="num num1" font-size="34" text-anchor="middle" dominant-baseline="central" filter="url(#glow)">1</text>
    
    
    <g transform="translate(172,716)">
      <rect x="0" y="0" width="68" height="68" rx="10" ry="10" fill="url(#tileOpen)" stroke="url(#holo)" stroke-width="1" opacity="0.95"/>
    </g>
    
    <text x="206.0" y="752.0" class="num num1" font-size="34" text-anchor="middle" dominant-baseline="central" filter="url(#glow)">1</text>
    
    
    <g transform="translate(308,716)">
      <rect x="0" y="0" width="68" height="68" rx="10" ry="10" fill="url(#tileOpen)" stroke="url(#holo)" stroke-width="1" opacity="0.95"/>
    </g>
    
    <text x="342.0" y="752.0" class="num num1" font-size="34" text-anchor="middle" dominant-baseline="central" filter="url(#glow)">1</text>
    
    
    <g transform="translate(376,716)">
      <rect x="0" y="0" width="68" height="68" rx="10" ry="10" fill="url(#tileOpen)" stroke="url(#holo)" stroke-width="1" opacity="0.95"/>
    </g>
    
    <text x="410.0" y="752.0" class="num num1" font-size="34" text-anchor="middle" dominant-baseline="central" filter="url(#glow)">1</text>
    
    
    <g transform="translate(512,716)">
      <rect x="0" y="0" width="68" height="68" rx="10" ry="10" fill="url(#tileOpen)" stroke="url(#holo)" stroke-width="1" opacity="0.95"/>
    </g>
    
    <text x="546.0" y="752.0" class="num num1" font-size="34" text-anchor="middle" dominant-baseline="central" filter="url(#glow)">1</text>
    
    
    <g transform="translate(648,716)">
      <rect x="0" y="0" width="68" height="68" rx="10" ry="10" fill="url(#tileOpen)" stroke="url(#holo)" stroke-width="1" opacity="0.95"/>
    </g>
    
    <text x="682.0" y="752.0" class="num num1" font-size="34" text-anchor="middle" dominant-baseline="central" filter="url(#glow)">1</text>
    
    
    <g transform="translate(240,784)">
      <rect x="0" y="0" width="68" height="68" rx="10" ry="10" fill="url(#tileOpen)" stroke="url(#holo)" stroke-width="1" opacity="0.95"/>
    </g>
    
    <text x="274.0" y="820.0" class="num num1" font-size="34" text-anchor="middle" dominant-baseline="central" filter="url(#glow)">1</text>
    
    
    <g transform="translate(376,784)">
      <rect x="0" y="0" width="68" height="68" rx="10" ry="10" fill="url(#tileOpen)" stroke="url(#holo)" stroke-width="1" opacity="0.95"/>
    </g>
    
    <text x="410.0" y="820.0" class="num num1" font-size="34" text-anchor="middle" dominant-baseline="central" filter="url(#glow)">1</text>
    
    
    <g transform="translate(444,784)">
      <rect x="0" y="0" width="68" height="68" rx="10" ry="10" fill="url(#tileOpen)" stroke="url(#holo)" stroke-width="1" opacity="0.95"/>
    </g>
    
    <text x="478.0" y="820.0" class="num num1" font-size="34" text-anchor="middle" dominant-baseline="central" filter="url(#glow)">1</text>
    
    
    <g transform="translate(512,784)">
      <rect x="0" y="0" width="68" height="68" rx="10" ry="10" fill="url(#tileOpen)" stroke="url(#holo)" stroke-width="1" opacity="0.95"/>
    </g>
    
    <text x="546.0" y="820.0" class="num num1" font-size="34" text-anchor="middle" dominant-baseline="central" filter="url(#glow)">1</text>
    
    
    <g transform="translate(648,784)">
      <rect x="0" y="0" width="68" height="68" rx="10" ry="10" fill="url(#tileOpen)" stroke="url(#holo)" stroke-width="1" opacity="0.95"/>
    </g>
    
    <text x="682.0" y="820.0" class="num num1" font-size="34" text-anchor="middle" dominant-baseline="central" filter="url(#glow)">1</text>
    
    <g transform="translate(308,444)">
      <rect x="0" y="0" width="68" height="68" rx="10" ry="10" fill="url(#tileOpen)" stroke="url(#holo)" stroke-width="1" opacity="0.95"/>
    </g>
    
    <g transform="translate(444,240)">
      <rect x="0" y="0" width="68" height="68" rx="10" ry="10" fill="url(#tileOpen)" stroke="url(#holo)" stroke-width="1" opacity="0.95"/>
    </g>
    
    <g transform="translate(376,444)">
      <rect x="0" y="0" width="68" height="68" rx="10" ry="10" fill="url(#tileOpen)" stroke="url(#holo)" stroke-width="1" opacity="0.95"/>
    </g>
    
    <g transform="translate(580,580)">
      <rect x="0" y="0" width="68" height="68" rx="10" ry="10" fill="url(#tileClosed)"/>
      <rect x="24.48" y="17.0" width="6" height="34.0" fill="#7DF9FF"/>
      <path d="M30.48,17.0 L54.28,25.16 L30.48,33.32 Z"
            fill="#FF5A7A" filter="url(#glow)"/>
      <circle cx="22.48" cy="57.0" r="4" fill="#00FFA8"/>
    </g>
    
    <g transform="translate(580,716)">
      <rect x="0" y="0" width="68" height="68" rx="10" ry="10" fill="url(#tileClosed)"/>
      <rect x="24.48" y="17.0" width="6" height="34.0" fill="#7DF9FF"/>
      <path d="M30.48,17.0 L54.28,25.16 L30.48,33.32 Z"
            fill="#FF5A7A" filter="url(#glow)"/>
      <circle cx="22.48" cy="57.0" r="4" fill="#00FFA8"/>
    </g>
    
    <g transform="translate(376,376)">
      <rect x="0" y="0" width="68" height="68" rx="10" ry="10" fill="url(#tileClosed)"/>
      <rect x="24.48" y="17.0" width="6" height="34.0" fill="#7DF9FF"/>
      <path d="M30.48,17.0 L54.28,25.16 L30.48,33.32 Z"
            fill="#FF5A7A" filter="url(#glow)"/>
      <circle cx="22.48" cy="57.0" r="4" fill="#00FFA8"/>
    </g>
    
    <g transform="translate(444,376)">
      <rect x="0" y="0" width="68" height="68" rx="10" ry="10" fill="url(#tileClosed)"/>
      <rect x="24.48" y="17.0" width="6" height="34.0" fill="#7DF9FF"/>
      <path d="M30.48,17.0 L54.28,25.16 L30.48,33.32 Z"
            fill="#FF5A7A" filter="url(#glow)"/>
      <circle cx="22.48" cy="57.0" r="4" fill="#00FFA8"/>
    </g>
    
  <!-- HUD arcs -->
  <g opacity="0.35">
    <path d="M60,940 A420,420 0 0,1 964,60" fill="none" stroke="#00FFA8" stroke-width="2"/>
    <path d="M964,900 A380,380 0 0,0 100,100" fill="none" stroke="#7DF9FF" stroke-width="2"/>
  </g>

</svg>
