<?xml version="1.0" encoding="UTF-8"?>
<svg width="1024" height="1024" viewBox="0 0 1024 1024" xmlns="http://www.w3.org/2000/svg">
  <defs>
    <linearGradient id="bgGrad" x1="0" y1="0" x2="1" y2="1">
      <stop offset="0%" stop-color="#0f1226"/>
      <stop offset="50%" stop-color="#121a3a"/>
      <stop offset="100%" stop-color="#04101e"/>
    </linearGradient>
    <linearGradient id="holo" x1="0" y1="0" x2="1" y2="1">
      <stop offset="0%" stop-color="#7DF9FF"/>
      <stop offset="25%" stop-color="#00E5FF"/>
      <stop offset="50%" stop-color="#7A5CFF"/>
      <stop offset="75%" stop-color="#FF45C7"/>
      <stop offset="100%" stop-color="#00FFA8"/>
    </linearGradient>
    <filter id="glow" x="-50%" y="-50%" width="200%" height="200%">
      <feGaussianBlur stdDeviation="5" result="blur"/>
      <feColorMatrix type="matrix"
        values="0 0 0 0 0
                0 0 0 0 0.9
                0 0 0 0 1
                0 0 0 1 0" result="blueish"/>
      <feMerge><feMergeNode in="blueish"/><feMergeNode in="SourceGraphic"/></feMerge>
    </filter>
    <filter id="innerShadow" x="-50%" y="-50%" width="200%" height="200%">
      <feOffset dx="0" dy="2"/><feGaussianBlur stdDeviation="8" result="offset-blur"/>
      <feComposite operator="out" in="SourceGraphic" in2="offset-blur" result="inverse"/>
      <feFlood flood-color="#000000" flood-opacity="0.6" result="color"/>
      <feComposite operator="in" in="color" in2="inverse" result="shadow"/>
      <feComposite operator="over" in="shadow" in2="SourceGraphic"/>
    </filter>
    <filter id="gridGlow" x="-50%" y="-50%" width="200%" height="200%">
      <feGaussianBlur stdDeviation="2" result="b"/><feMerge><feMergeNode in="b"/><feMergeNode in="SourceGraphic"/></feMerge>
    </filter>
    <filter id="cellShadow" x="-50%" y="-50%" width="200%" height="200%">
      <feDropShadow dx="0" dy="2" stdDeviation="2.5" flood-color="#00E5FF" flood-opacity="0.45"/>
    </filter>
    <pattern id="scan" width="4" height="4" patternUnits="userSpaceOnUse">
      <rect width="4" height="1" y="0" fill="rgba(255,255,255,0.04)"/>
    </pattern>
    <linearGradient id="tileOpen" x1="0" y1="0" x2="0" y2="1">
      <stop offset="0%" stop-color="#0a1426"/>
      <stop offset="100%" stop-color="#0b1a2f"/>
    </linearGradient>
    <linearGradient id="tileBevelLight" x1="0" y1="0" x2="0" y2="1">
      <stop offset="0%" stop-color="#7DF9FF"/>
      <stop offset="100%" stop-color="#00E5FF"/>
    </linearGradient>
    <clipPath id="cardClip">
      <rect x="32" y="32" width="960" height="960" rx="180" ry="180"/>
    </clipPath>
  </defs>

  <!-- Card -->
  <rect x="32" y="32" width="960" height="960" rx="180" ry="180" fill="url(#bgGrad)" filter="url(#innerShadow)"/>
  <rect x="32" y="32" width="960" height="960" rx="180" ry="180" fill="none" stroke="url(#holo)" stroke-width="6" opacity="0.9"/>
  <rect x="32" y="32" width="960" height="960" rx="180" ry="180" fill="url(#scan)" opacity="0.5"/>

  <g clip-path="url(#cardClip)">
    <!-- Badges -->
    
    <g transform="translate(224.0,189.0)" filter="url(#cellShadow)">
      <rect x="0" y="0" width="130" height="40" rx="20" ry="20" fill="#1e3a2f" stroke="url(#holo)" stroke-width="1.5" opacity="0.9"/>
      <text x="65" y="26" font-family="Inter, system-ui, -apple-system, Segoe UI, Roboto, Arial" font-size="18" font-weight="800"
            text-anchor="middle" fill="#E6F1FF" opacity="0.95">AI On</text>
    </g>
    
    
    <g transform="translate(370.0,189.0)" filter="url(#cellShadow)">
      <rect x="0" y="0" width="130" height="40" rx="20" ry="20" fill="#3b2b6b" stroke="url(#holo)" stroke-width="1.5" opacity="0.9"/>
      <text x="65" y="26" font-family="Inter, system-ui, -apple-system, Segoe UI, Roboto, Arial" font-size="18" font-weight="800"
            text-anchor="middle" fill="#E6F1FF" opacity="0.95">Magic T On</text>
    </g>
    
    
    <g transform="translate(516.0,189.0)" filter="url(#cellShadow)">
      <rect x="0" y="0" width="130" height="40" rx="20" ry="20" fill="#143b76" stroke="url(#holo)" stroke-width="1.5" opacity="0.9"/>
      <text x="65" y="26" font-family="Inter, system-ui, -apple-system, Segoe UI, Roboto, Arial" font-size="18" font-weight="800"
            text-anchor="middle" fill="#E6F1FF" opacity="0.95">Music</text>
    </g>
    

    <!-- Board container + grid -->
    <g transform="translate(210.0,245.0)" filter="url(#gridGlow)">
      <rect x="0" y="0" width="268" height="508" rx="18" ry="18"
            fill="#0b1224" stroke="url(#holo)" stroke-width="2"/>
    </g>
<line x1="248.0" y1="259.0" x2="248.0" y2="739.0" stroke="#2b3b64" stroke-width="1" opacity="0.55"/>
<line x1="272.0" y1="259.0" x2="272.0" y2="739.0" stroke="#2b3b64" stroke-width="1" opacity="0.55"/>
<line x1="296.0" y1="259.0" x2="296.0" y2="739.0" stroke="#2b3b64" stroke-width="1" opacity="0.55"/>
<line x1="320.0" y1="259.0" x2="320.0" y2="739.0" stroke="#2b3b64" stroke-width="1" opacity="0.55"/>
<line x1="344.0" y1="259.0" x2="344.0" y2="739.0" stroke="#2b3b64" stroke-width="1" opacity="0.55"/>
<line x1="368.0" y1="259.0" x2="368.0" y2="739.0" stroke="#2b3b64" stroke-width="1" opacity="0.55"/>
<line x1="392.0" y1="259.0" x2="392.0" y2="739.0" stroke="#2b3b64" stroke-width="1" opacity="0.55"/>
<line x1="416.0" y1="259.0" x2="416.0" y2="739.0" stroke="#2b3b64" stroke-width="1" opacity="0.55"/>
<line x1="440.0" y1="259.0" x2="440.0" y2="739.0" stroke="#2b3b64" stroke-width="1" opacity="0.55"/>
<line x1="224.0" y1="283.0" x2="464.0" y2="283.0" stroke="#2b3b64" stroke-width="1" opacity="0.55"/>
<line x1="224.0" y1="307.0" x2="464.0" y2="307.0" stroke="#2b3b64" stroke-width="1" opacity="0.55"/>
<line x1="224.0" y1="331.0" x2="464.0" y2="331.0" stroke="#2b3b64" stroke-width="1" opacity="0.55"/>
<line x1="224.0" y1="355.0" x2="464.0" y2="355.0" stroke="#2b3b64" stroke-width="1" opacity="0.55"/>
<line x1="224.0" y1="379.0" x2="464.0" y2="379.0" stroke="#2b3b64" stroke-width="1" opacity="0.55"/>
<line x1="224.0" y1="403.0" x2="464.0" y2="403.0" stroke="#2b3b64" stroke-width="1" opacity="0.55"/>
<line x1="224.0" y1="427.0" x2="464.0" y2="427.0" stroke="#2b3b64" stroke-width="1" opacity="0.55"/>
<line x1="224.0" y1="451.0" x2="464.0" y2="451.0" stroke="#2b3b64" stroke-width="1" opacity="0.55"/>
<line x1="224.0" y1="475.0" x2="464.0" y2="475.0" stroke="#2b3b64" stroke-width="1" opacity="0.55"/>
<line x1="224.0" y1="499.0" x2="464.0" y2="499.0" stroke="#2b3b64" stroke-width="1" opacity="0.55"/>
<line x1="224.0" y1="523.0" x2="464.0" y2="523.0" stroke="#2b3b64" stroke-width="1" opacity="0.55"/>
<line x1="224.0" y1="547.0" x2="464.0" y2="547.0" stroke="#2b3b64" stroke-width="1" opacity="0.55"/>
<line x1="224.0" y1="571.0" x2="464.0" y2="571.0" stroke="#2b3b64" stroke-width="1" opacity="0.55"/>
<line x1="224.0" y1="595.0" x2="464.0" y2="595.0" stroke="#2b3b64" stroke-width="1" opacity="0.55"/>
<line x1="224.0" y1="619.0" x2="464.0" y2="619.0" stroke="#2b3b64" stroke-width="1" opacity="0.55"/>
<line x1="224.0" y1="643.0" x2="464.0" y2="643.0" stroke="#2b3b64" stroke-width="1" opacity="0.55"/>
<line x1="224.0" y1="667.0" x2="464.0" y2="667.0" stroke="#2b3b64" stroke-width="1" opacity="0.55"/>
<line x1="224.0" y1="691.0" x2="464.0" y2="691.0" stroke="#2b3b64" stroke-width="1" opacity="0.55"/>
<line x1="224.0" y1="715.0" x2="464.0" y2="715.0" stroke="#2b3b64" stroke-width="1" opacity="0.55"/>

    <g transform="translate(344.0,523.0)" filter="url(#cellShadow)">
      <rect x="1" y="1" width="22" height="22" rx="6" ry="6"
            fill="url(#holo)" stroke="url(#holo)" stroke-width="1"/>
      <path d="M2,2 H20 M2,2 V20" stroke="url(#tileBevelLight)" stroke-width="2" opacity="0.55"/>
    </g>
    
    <g transform="translate(344.0,547.0)" filter="url(#cellShadow)">
      <rect x="1" y="1" width="22" height="22" rx="6" ry="6"
            fill="#00E5FF" stroke="url(#holo)" stroke-width="1"/>
      <path d="M2,2 H20 M2,2 V20" stroke="url(#tileBevelLight)" stroke-width="2" opacity="0.55"/>
    </g>
    
    <g transform="translate(416.0,547.0)" filter="url(#cellShadow)">
      <rect x="1" y="1" width="22" height="22" rx="6" ry="6"
            fill="#7A5CFF" stroke="url(#holo)" stroke-width="1"/>
      <path d="M2,2 H20 M2,2 V20" stroke="url(#tileBevelLight)" stroke-width="2" opacity="0.55"/>
    </g>
    
    <g transform="translate(248.0,571.0)" filter="url(#cellShadow)">
      <rect x="1" y="1" width="22" height="22" rx="6" ry="6"
            fill="#FF45C7" stroke="url(#holo)" stroke-width="1"/>
      <path d="M2,2 H20 M2,2 V20" stroke="url(#tileBevelLight)" stroke-width="2" opacity="0.55"/>
    </g>
    
    <g transform="translate(344.0,571.0)" filter="url(#cellShadow)">
      <rect x="1" y="1" width="22" height="22" rx="6" ry="6"
            fill="url(#holo)" stroke="url(#holo)" stroke-width="1"/>
      <path d="M2,2 H20 M2,2 V20" stroke="url(#tileBevelLight)" stroke-width="2" opacity="0.55"/>
    </g>
    
    <g transform="translate(416.0,571.0)" filter="url(#cellShadow)">
      <rect x="1" y="1" width="22" height="22" rx="6" ry="6"
            fill="#00E5FF" stroke="url(#holo)" stroke-width="1"/>
      <path d="M2,2 H20 M2,2 V20" stroke="url(#tileBevelLight)" stroke-width="2" opacity="0.55"/>
    </g>
    
    <g transform="translate(248.0,595.0)" filter="url(#cellShadow)">
      <rect x="1" y="1" width="22" height="22" rx="6" ry="6"
            fill="#7A5CFF" stroke="url(#holo)" stroke-width="1"/>
      <path d="M2,2 H20 M2,2 V20" stroke="url(#tileBevelLight)" stroke-width="2" opacity="0.55"/>
    </g>
    
    <g transform="translate(344.0,595.0)" filter="url(#cellShadow)">
      <rect x="1" y="1" width="22" height="22" rx="6" ry="6"
            fill="#FF45C7" stroke="url(#holo)" stroke-width="1"/>
      <path d="M2,2 H20 M2,2 V20" stroke="url(#tileBevelLight)" stroke-width="2" opacity="0.55"/>
    </g>
    
    <g transform="translate(416.0,595.0)" filter="url(#cellShadow)">
      <rect x="1" y="1" width="22" height="22" rx="6" ry="6"
            fill="url(#holo)" stroke="url(#holo)" stroke-width="1"/>
      <path d="M2,2 H20 M2,2 V20" stroke="url(#tileBevelLight)" stroke-width="2" opacity="0.55"/>
    </g>
    
    <g transform="translate(248.0,619.0)" filter="url(#cellShadow)">
      <rect x="1" y="1" width="22" height="22" rx="6" ry="6"
            fill="#00E5FF" stroke="url(#holo)" stroke-width="1"/>
      <path d="M2,2 H20 M2,2 V20" stroke="url(#tileBevelLight)" stroke-width="2" opacity="0.55"/>
    </g>
    
    <g transform="translate(248.0,667.0)" filter="url(#cellShadow)">
      <rect x="1" y="1" width="22" height="22" rx="6" ry="6"
            fill="#7A5CFF" stroke="url(#holo)" stroke-width="1"/>
      <path d="M2,2 H20 M2,2 V20" stroke="url(#tileBevelLight)" stroke-width="2" opacity="0.55"/>
    </g>
    
    <g transform="translate(272.0,667.0)" filter="url(#cellShadow)">
      <rect x="1" y="1" width="22" height="22" rx="6" ry="6"
            fill="#FF45C7" stroke="url(#holo)" stroke-width="1"/>
      <path d="M2,2 H20 M2,2 V20" stroke="url(#tileBevelLight)" stroke-width="2" opacity="0.55"/>
    </g>
    
    <g transform="translate(296.0,667.0)" filter="url(#cellShadow)">
      <rect x="1" y="1" width="22" height="22" rx="6" ry="6"
            fill="url(#holo)" stroke="url(#holo)" stroke-width="1"/>
      <path d="M2,2 H20 M2,2 V20" stroke="url(#tileBevelLight)" stroke-width="2" opacity="0.55"/>
    </g>
    
    <g transform="translate(320.0,667.0)" filter="url(#cellShadow)">
      <rect x="1" y="1" width="22" height="22" rx="6" ry="6"
            fill="#00E5FF" stroke="url(#holo)" stroke-width="1"/>
      <path d="M2,2 H20 M2,2 V20" stroke="url(#tileBevelLight)" stroke-width="2" opacity="0.55"/>
    </g>
    
    <g transform="translate(344.0,667.0)" filter="url(#cellShadow)">
      <rect x="1" y="1" width="22" height="22" rx="6" ry="6"
            fill="#7A5CFF" stroke="url(#holo)" stroke-width="1"/>
      <path d="M2,2 H20 M2,2 V20" stroke="url(#tileBevelLight)" stroke-width="2" opacity="0.55"/>
    </g>
    
    <g transform="translate(368.0,667.0)" filter="url(#cellShadow)">
      <rect x="1" y="1" width="22" height="22" rx="6" ry="6"
            fill="#FF45C7" stroke="url(#holo)" stroke-width="1"/>
      <path d="M2,2 H20 M2,2 V20" stroke="url(#tileBevelLight)" stroke-width="2" opacity="0.55"/>
    </g>
    
    <g transform="translate(392.0,667.0)" filter="url(#cellShadow)">
      <rect x="1" y="1" width="22" height="22" rx="6" ry="6"
            fill="url(#holo)" stroke="url(#holo)" stroke-width="1"/>
      <path d="M2,2 H20 M2,2 V20" stroke="url(#tileBevelLight)" stroke-width="2" opacity="0.55"/>
    </g>
    
    <g transform="translate(416.0,667.0)" filter="url(#cellShadow)">
      <rect x="1" y="1" width="22" height="22" rx="6" ry="6"
            fill="#00E5FF" stroke="url(#holo)" stroke-width="1"/>
      <path d="M2,2 H20 M2,2 V20" stroke="url(#tileBevelLight)" stroke-width="2" opacity="0.55"/>
    </g>
    
    <g transform="translate(224.0,691.0)" filter="url(#cellShadow)">
      <rect x="1" y="1" width="22" height="22" rx="6" ry="6"
            fill="#7A5CFF" stroke="url(#holo)" stroke-width="1"/>
      <path d="M2,2 H20 M2,2 V20" stroke="url(#tileBevelLight)" stroke-width="2" opacity="0.55"/>
    </g>
    
    <g transform="translate(248.0,691.0)" filter="url(#cellShadow)">
      <rect x="1" y="1" width="22" height="22" rx="6" ry="6"
            fill="#FF45C7" stroke="url(#holo)" stroke-width="1"/>
      <path d="M2,2 H20 M2,2 V20" stroke="url(#tileBevelLight)" stroke-width="2" opacity="0.55"/>
    </g>
    
    <g transform="translate(272.0,691.0)" filter="url(#cellShadow)">
      <rect x="1" y="1" width="22" height="22" rx="6" ry="6"
            fill="url(#holo)" stroke="url(#holo)" stroke-width="1"/>
      <path d="M2,2 H20 M2,2 V20" stroke="url(#tileBevelLight)" stroke-width="2" opacity="0.55"/>
    </g>
    
    <g transform="translate(344.0,691.0)" filter="url(#cellShadow)">
      <rect x="1" y="1" width="22" height="22" rx="6" ry="6"
            fill="#00E5FF" stroke="url(#holo)" stroke-width="1"/>
      <path d="M2,2 H20 M2,2 V20" stroke="url(#tileBevelLight)" stroke-width="2" opacity="0.55"/>
    </g>
    
    <g transform="translate(368.0,691.0)" filter="url(#cellShadow)">
      <rect x="1" y="1" width="22" height="22" rx="6" ry="6"
            fill="#7A5CFF" stroke="url(#holo)" stroke-width="1"/>
      <path d="M2,2 H20 M2,2 V20" stroke="url(#tileBevelLight)" stroke-width="2" opacity="0.55"/>
    </g>
    
    <g transform="translate(392.0,691.0)" filter="url(#cellShadow)">
      <rect x="1" y="1" width="22" height="22" rx="6" ry="6"
            fill="#FF45C7" stroke="url(#holo)" stroke-width="1"/>
      <path d="M2,2 H20 M2,2 V20" stroke="url(#tileBevelLight)" stroke-width="2" opacity="0.55"/>
    </g>
    
    <g transform="translate(416.0,691.0)" filter="url(#cellShadow)">
      <rect x="1" y="1" width="22" height="22" rx="6" ry="6"
            fill="url(#holo)" stroke="url(#holo)" stroke-width="1"/>
      <path d="M2,2 H20 M2,2 V20" stroke="url(#tileBevelLight)" stroke-width="2" opacity="0.55"/>
    </g>
    
    <g transform="translate(440.0,691.0)" filter="url(#cellShadow)">
      <rect x="1" y="1" width="22" height="22" rx="6" ry="6"
            fill="#00E5FF" stroke="url(#holo)" stroke-width="1"/>
      <path d="M2,2 H20 M2,2 V20" stroke="url(#tileBevelLight)" stroke-width="2" opacity="0.55"/>
    </g>
    
    <g transform="translate(224.0,715.0)" filter="url(#cellShadow)">
      <rect x="1" y="1" width="22" height="22" rx="6" ry="6"
            fill="#7A5CFF" stroke="url(#holo)" stroke-width="1"/>
      <path d="M2,2 H20 M2,2 V20" stroke="url(#tileBevelLight)" stroke-width="2" opacity="0.55"/>
    </g>
    
    <g transform="translate(248.0,715.0)" filter="url(#cellShadow)">
      <rect x="1" y="1" width="22" height="22" rx="6" ry="6"
            fill="#FF45C7" stroke="url(#holo)" stroke-width="1"/>
      <path d="M2,2 H20 M2,2 V20" stroke="url(#tileBevelLight)" stroke-width="2" opacity="0.55"/>
    </g>
    
    <g transform="translate(272.0,715.0)" filter="url(#cellShadow)">
      <rect x="1" y="1" width="22" height="22" rx="6" ry="6"
            fill="url(#holo)" stroke="url(#holo)" stroke-width="1"/>
      <path d="M2,2 H20 M2,2 V20" stroke="url(#tileBevelLight)" stroke-width="2" opacity="0.55"/>
    </g>
    
    <g transform="translate(296.0,715.0)" filter="url(#cellShadow)">
      <rect x="1" y="1" width="22" height="22" rx="6" ry="6"
            fill="#00E5FF" stroke="url(#holo)" stroke-width="1"/>
      <path d="M2,2 H20 M2,2 V20" stroke="url(#tileBevelLight)" stroke-width="2" opacity="0.55"/>
    </g>
    
    <g transform="translate(320.0,715.0)" filter="url(#cellShadow)">
      <rect x="1" y="1" width="22" height="22" rx="6" ry="6"
            fill="#7A5CFF" stroke="url(#holo)" stroke-width="1"/>
      <path d="M2,2 H20 M2,2 V20" stroke="url(#tileBevelLight)" stroke-width="2" opacity="0.55"/>
    </g>
    
    <g transform="translate(344.0,715.0)" filter="url(#cellShadow)">
      <rect x="1" y="1" width="22" height="22" rx="6" ry="6"
            fill="#FF45C7" stroke="url(#holo)" stroke-width="1"/>
      <path d="M2,2 H20 M2,2 V20" stroke="url(#tileBevelLight)" stroke-width="2" opacity="0.55"/>
    </g>
    
    <g transform="translate(368.0,715.0)" filter="url(#cellShadow)">
      <rect x="1" y="1" width="22" height="22" rx="6" ry="6"
            fill="url(#holo)" stroke="url(#holo)" stroke-width="1"/>
      <path d="M2,2 H20 M2,2 V20" stroke="url(#tileBevelLight)" stroke-width="2" opacity="0.55"/>
    </g>
    
    <g transform="translate(392.0,715.0)" filter="url(#cellShadow)">
      <rect x="1" y="1" width="22" height="22" rx="6" ry="6"
            fill="#00E5FF" stroke="url(#holo)" stroke-width="1"/>
      <path d="M2,2 H20 M2,2 V20" stroke="url(#tileBevelLight)" stroke-width="2" opacity="0.55"/>
    </g>
    
    <g transform="translate(416.0,715.0)" filter="url(#cellShadow)">
      <rect x="1" y="1" width="22" height="22" rx="6" ry="6"
            fill="#7A5CFF" stroke="url(#holo)" stroke-width="1"/>
      <path d="M2,2 H20 M2,2 V20" stroke="url(#tileBevelLight)" stroke-width="2" opacity="0.55"/>
    </g>
    
    <g transform="translate(440.0,715.0)" filter="url(#cellShadow)">
      <rect x="1" y="1" width="22" height="22" rx="6" ry="6"
            fill="#FF45C7" stroke="url(#holo)" stroke-width="1"/>
      <path d="M2,2 H20 M2,2 V20" stroke="url(#tileBevelLight)" stroke-width="2" opacity="0.55"/>
    </g>
    
    <g transform="translate(320.0,571.0)" filter="url(#cellShadow)">
      <rect x="1" y="1" width="22" height="22" rx="6" ry="6"
            fill="rgba(255,255,255,0.06)" stroke="rgba(125,249,255,0.35)" stroke-width="1"/>
      <path d="M2,2 H20 M2,2 V20" stroke="url(#tileBevelLight)" stroke-width="2" opacity="0.55"/>
    </g>
    
    <g transform="translate(296.0,595.0)" filter="url(#cellShadow)">
      <rect x="1" y="1" width="22" height="22" rx="6" ry="6"
            fill="rgba(255,255,255,0.06)" stroke="rgba(125,249,255,0.35)" stroke-width="1"/>
      <path d="M2,2 H20 M2,2 V20" stroke="url(#tileBevelLight)" stroke-width="2" opacity="0.55"/>
    </g>
    
    <g transform="translate(320.0,595.0)" filter="url(#cellShadow)">
      <rect x="1" y="1" width="22" height="22" rx="6" ry="6"
            fill="rgba(255,255,255,0.06)" stroke="rgba(125,249,255,0.35)" stroke-width="1"/>
      <path d="M2,2 H20 M2,2 V20" stroke="url(#tileBevelLight)" stroke-width="2" opacity="0.55"/>
    </g>
    
    <g transform="translate(344.0,595.0)" filter="url(#cellShadow)">
      <rect x="1" y="1" width="22" height="22" rx="6" ry="6"
            fill="rgba(255,255,255,0.06)" stroke="rgba(125,249,255,0.35)" stroke-width="1"/>
      <path d="M2,2 H20 M2,2 V20" stroke="url(#tileBevelLight)" stroke-width="2" opacity="0.55"/>
    </g>
    
    <g transform="translate(320.0,355.0)" filter="url(#cellShadow)">
      <rect x="1" y="1" width="22" height="22" rx="6" ry="6"
            fill="#FF45C7" stroke="url(#holo)" stroke-width="1"/>
      <path d="M2,2 H20 M2,2 V20" stroke="url(#tileBevelLight)" stroke-width="2" opacity="0.55"/>
    </g>
    
    <g transform="translate(296.0,379.0)" filter="url(#cellShadow)">
      <rect x="1" y="1" width="22" height="22" rx="6" ry="6"
            fill="#FF45C7" stroke="url(#holo)" stroke-width="1"/>
      <path d="M2,2 H20 M2,2 V20" stroke="url(#tileBevelLight)" stroke-width="2" opacity="0.55"/>
    </g>
    
    <g transform="translate(320.0,379.0)" filter="url(#cellShadow)">
      <rect x="1" y="1" width="22" height="22" rx="6" ry="6"
            fill="#FF45C7" stroke="url(#holo)" stroke-width="1"/>
      <path d="M2,2 H20 M2,2 V20" stroke="url(#tileBevelLight)" stroke-width="2" opacity="0.55"/>
    </g>
    
    <g transform="translate(344.0,379.0)" filter="url(#cellShadow)">
      <rect x="1" y="1" width="22" height="22" rx="6" ry="6"
            fill="#FF45C7" stroke="url(#holo)" stroke-width="1"/>
      <path d="M2,2 H20 M2,2 V20" stroke="url(#tileBevelLight)" stroke-width="2" opacity="0.55"/>
    </g>
    
    <g transform="translate(224.0,771.0)" filter="url(#cellShadow)">
      <rect x="0" y="0" width="72" height="64" rx="14" ry="14" fill="#1e3358" stroke="url(#holo)" stroke-width="2" opacity="0.9"/>
      <text x="36" y="40" font-family="Inter, system-ui, -apple-system, Segoe UI, Roboto, Arial" font-size="28" font-weight="900"
            text-anchor="middle" fill="#DDE8FF">&larr;</text>
    </g>
    
    <g transform="translate(308.0,771.0)" filter="url(#cellShadow)">
      <rect x="0" y="0" width="72" height="64" rx="14" ry="14" fill="#1f5b3b" stroke="url(#holo)" stroke-width="2" opacity="0.9"/>
      <text x="36" y="40" font-family="Inter, system-ui, -apple-system, Segoe UI, Roboto, Arial" font-size="28" font-weight="900"
            text-anchor="middle" fill="#DDE8FF">⟳</text>
    </g>
    
    <g transform="translate(392.0,771.0)" filter="url(#cellShadow)">
      <rect x="0" y="0" width="72" height="64" rx="14" ry="14" fill="#5b2527" stroke="url(#holo)" stroke-width="2" opacity="0.9"/>
      <text x="36" y="40" font-family="Inter, system-ui, -apple-system, Segoe UI, Roboto, Arial" font-size="28" font-weight="900"
            text-anchor="middle" fill="#DDE8FF">&darr;</text>
    </g>
    
    <g transform="translate(476.0,771.0)" filter="url(#cellShadow)">
      <rect x="0" y="0" width="72" height="64" rx="14" ry="14" fill="#6b4b14" stroke="url(#holo)" stroke-width="2" opacity="0.9"/>
      <text x="36" y="40" font-family="Inter, system-ui, -apple-system, Segoe UI, Roboto, Arial" font-size="28" font-weight="900"
            text-anchor="middle" fill="#DDE8FF">AI</text>
    </g>
    
    <g transform="translate(500.0,189.0)" filter="url(#cellShadow)">
      <rect x="0" y="0" width="300" height="160" rx="24" ry="24" fill="#0b1224" stroke="url(#holo)" stroke-width="2"/>
      <text x="20" y="44" font-family="Inter, system-ui, -apple-system, Segoe UI, Roboto, Arial" font-size="28" font-weight="900" fill="#DDE8FF">Score</text>
      <text x="20" y="84" font-family="Inter, system-ui, -apple-system, Segoe UI, Roboto, Arial" font-size="22" fill="#A8C7FF">Points</text>
      <text x="280" y="84" text-anchor="end" font-family="Inter, system-ui, -apple-system, Segoe UI, Roboto, Arial" font-size="24" font-weight="900" fill="#7DF9FF" filter="url(#glow)">340</text>
      <text x="20" y="116" font-family="Inter, system-ui, -apple-system, Segoe UI, Roboto, Arial" font-size="22" fill="#A8C7FF">Lines</text>
      <text x="280" y="116" text-anchor="end" font-family="Inter, system-ui, -apple-system, Segoe UI, Roboto, Arial" font-size="24" font-weight="900" fill="#00FFA8" filter="url(#glow)">2</text>
    </g>
    

    <g transform="translate(500.0,369.0)" filter="url(#cellShadow)">
      <rect x="0" y="0" width="300" height="200" rx="24" ry="24" fill="#0b1224" stroke="url(#holo)" stroke-width="2"/>
      <text x="20" y="44" font-family="Inter, system-ui, -apple-system, Segoe UI, Roboto, Arial" font-size="26" font-weight="900" fill="#DDE8FF">Next Piece</text>
      <rect x="24" y="70" width="252" height="110" rx="16" ry="16" fill="none" stroke="#2b3b64"/>
    </g>
    

    <g transform="translate(500.0,589.0)" filter="url(#cellShadow)">
      <rect x="0" y="0" width="300" height="200" rx="24" ry="24" fill="#0b1224" stroke="url(#holo)" stroke-width="2"/>
      <text x="20" y="44" font-family="Inter, system-ui, -apple-system, Segoe UI, Roboto, Arial" font-size="26" font-weight="900" fill="#DDE8FF">Statistics</text>
      <text x="20" y="86" font-family="Inter, system-ui, -apple-system, Segoe UI, Roboto, Arial" font-size="22" fill="#A8C7FF">Games Played</text>
      <text x="280" y="86" text-anchor="end" font-family="Inter, system-ui, -apple-system, Segoe UI, Roboto, Arial" font-size="24" font-weight="900" fill="#7DF9FF" filter="url(#glow)">72</text>
      <text x="20" y="124" font-family="Inter, system-ui, -apple-system, Segoe UI, Roboto, Arial" font-size="22" fill="#A8C7FF">AI Moves</text>
      <text x="280" y="124" text-anchor="end" font-family="Inter, system-ui, -apple-system, Segoe UI, Roboto, Arial" font-size="24" font-weight="900" fill="#00FFA8" filter="url(#glow)">1277</text>
      <text x="20" y="162" font-family="Inter, system-ui, -apple-system, Segoe UI, Roboto, Arial" font-size="22" fill="#A8C7FF">Max Score</text>
      <text x="280" y="162" text-anchor="end" font-family="Inter, system-ui, -apple-system, Segoe UI, Roboto, Arial" font-size="24" font-weight="900" fill="#FF45C7" filter="url(#glow)">12327</text>
    </g>
    

    <g transform="translate(560.0,809.0)" filter="url(#cellShadow)">
      <rect x="0" y="0" width="240" height="64" rx="16" ry="16" fill="#2f43c7" stroke="url(#holo)" stroke-width="2" opacity="0.95"/>
      <text x="120" y="40" font-family="Inter, system-ui, -apple-system, Segoe UI, Roboto, Arial" font-size="24" font-weight="900"
            text-anchor="middle" fill="#EAF2FF">New Game</text>
    </g>
    
    <g transform="translate(638.0,463.0)" filter="url(#cellShadow)">
      <rect x="1" y="1" width="22" height="22" rx="6" ry="6"
            fill="#FFE94D" stroke="url(#holo)" stroke-width="1"/>
      <path d="M2,2 H20 M2,2 V20" stroke="url(#tileBevelLight)" stroke-width="2" opacity="0.55"/>
    </g>
    

    <g transform="translate(662.0,463.0)" filter="url(#cellShadow)">
      <rect x="1" y="1" width="22" height="22" rx="6" ry="6"
            fill="#FFE94D" stroke="url(#holo)" stroke-width="1"/>
      <path d="M2,2 H20 M2,2 V20" stroke="url(#tileBevelLight)" stroke-width="2" opacity="0.55"/>
    </g>
    

    <g transform="translate(614.0,487.0)" filter="url(#cellShadow)">
      <rect x="1" y="1" width="22" height="22" rx="6" ry="6"
            fill="#FFE94D" stroke="url(#holo)" stroke-width="1"/>
      <path d="M2,2 H20 M2,2 V20" stroke="url(#tileBevelLight)" stroke-width="2" opacity="0.55"/>
    </g>
    

    <g transform="translate(638.0,487.0)" filter="url(#cellShadow)">
      <rect x="1" y="1" width="22" height="22" rx="6" ry="6"
            fill="#FFE94D" stroke="url(#holo)" stroke-width="1"/>
      <path d="M2,2 H20 M2,2 V20" stroke="url(#tileBevelLight)" stroke-width="2" opacity="0.55"/>
    </g>
    
  </g>
</svg>
